<svg width="171" height="51" viewBox="0 0 171 51" fill="none" xmlns="http://www.w3.org/2000/svg">
<path d="M64.1457 21.2012H66.5175V33.7844H65.0439L58.4211 25.2949V33.7679H56.0701V21.2343H57.9741L64.1292 29.0243L64.1457 21.2012Z" fill="#161616"/>
<path d="M77.6148 31.4293H71.0417L69.9655 33.8011H67.3992L73.0368 21.2344H75.6197L81.2573 33.8011H78.6703L77.6148 31.4293ZM74.3283 23.8752L71.9937 29.2231H76.6628L74.3283 23.8752Z" fill="#161616"/>
<path d="M93.468 33.801H90.6492L86.986 29.5997H84.7053V33.801H82.3376V21.2012C84.3286 21.2012 86.3237 21.2012 88.3147 21.2012C91.2784 21.2012 92.8389 23.1921 92.8389 25.3652C92.8389 27.0913 92.0483 28.8298 89.66 29.3141L93.468 33.6065V33.801ZM84.7053 23.4529V27.4763H88.3147C89.8214 27.4763 90.4671 26.4704 90.4671 25.4646C90.4671 24.4587 89.8048 23.4529 88.3147 23.4529H84.7053Z" fill="#161616"/>
<path d="M103.361 31.4293H96.7918L95.7156 33.8011H93.1576L98.7952 21.2344H101.378L107.016 33.8011H104.433L103.361 31.4293ZM100.074 23.8752L97.7439 29.2231H102.409L100.074 23.8752Z" fill="#161616"/>
<path d="M111.3 26.4208L114.636 21.2344H117.492V21.342L112.484 28.6105V33.8011H110.128V28.6105L105.286 21.342V21.2344H108.104L111.3 26.4208Z" fill="#161616"/>
<path d="M127.459 31.4293H120.89L119.814 33.8011H117.248L122.886 21.2344H125.468L131.106 33.8011H128.519L127.459 31.4293ZM124.173 23.8752L121.838 29.2231H126.507L124.173 23.8752Z" fill="#161616"/>
<path d="M140.44 21.2012H142.828V33.7844H141.338L134.715 25.2949V33.7679H132.344V21.2343H134.264L140.423 29.0243L140.44 21.2012Z" fill="#161616"/>
<path d="M153.905 31.4293H147.336L146.26 33.8011H143.693L149.327 21.2344H151.935L157.572 33.8011H154.985L153.905 31.4293ZM150.623 23.8752L148.288 29.2231H152.953L150.623 23.8752Z" fill="#161616"/>
<path d="M167.353 31.4293H160.784L159.708 33.8011H157.142L162.775 21.2344H165.362L171 33.8011H168.413L167.353 31.4293ZM164.071 23.8752L161.736 29.2231H166.422L164.071 23.8752Z" fill="#161616"/>
<path d="M63.1316 40.6558V49.3482H62.4983V45.2089H56.7034V49.3482H56.0701V40.6558H56.6992V44.646H62.4942V40.6558H63.1316Z" fill="#3E3E3D"/>
<path d="M65.3212 44.9894C65.3212 42.4727 67.2418 40.5894 69.833 40.5894C70.9999 40.5894 72.1191 41.0529 72.9443 41.8781C73.7694 42.7033 74.233 43.8224 74.233 44.9894C74.233 46.1563 73.7694 47.2755 72.9443 48.1006C72.1191 48.9258 70.9999 49.3894 69.833 49.3894C67.2418 49.3894 65.3212 47.506 65.3212 44.9894ZM73.699 44.9894C73.7105 44.2204 73.4929 43.4654 73.0739 42.8205C72.6549 42.1756 72.0534 41.67 71.346 41.3681C70.6387 41.0662 69.8575 40.9816 69.102 41.1252C68.3464 41.2687 67.6507 41.6339 67.1034 42.1742C66.556 42.7145 66.1819 43.4054 66.0286 44.1591C65.8753 44.9127 65.9497 45.6949 66.2425 46.4061C66.5352 47.1173 67.033 47.7253 67.6724 48.1526C68.3118 48.5799 69.0639 48.8073 69.833 48.8057C70.342 48.8257 70.8497 48.7411 71.3248 48.557C71.7998 48.373 72.232 48.0935 72.5947 47.7359C72.9575 47.3782 73.243 46.9499 73.4336 46.4775C73.6243 46.0051 73.716 45.4986 73.7032 44.9894H73.699Z" fill="#3E3E3D"/>
<path d="M75.6528 48.2098L75.9384 47.7421C76.7177 48.457 77.7411 48.8465 78.7986 48.8307C80.5371 48.8307 81.3028 48.0732 81.3028 47.1336C81.3028 44.53 75.8887 46.0905 75.8887 42.895C75.8887 41.6533 76.8325 40.5895 78.96 40.5895C79.8907 40.5825 80.802 40.855 81.576 41.3718L81.3401 41.8809C80.6371 41.4057 79.8085 41.1507 78.96 41.1483C77.2754 41.1483 76.522 41.9306 76.522 42.8826C76.522 45.4862 81.9361 43.9505 81.9361 47.0964C81.9361 48.3381 80.9551 49.3895 78.811 49.3895C77.5237 49.3895 76.2861 48.9052 75.6528 48.2098Z" fill="#3E3E3D"/>
<path d="M90.6741 43.5781C90.6741 45.3993 89.3578 46.4755 87.1806 46.4755H84.697V49.3482H84.0637V40.6558H87.1764C89.3661 40.6558 90.6741 41.7444 90.6741 43.5781ZM90.0284 43.5781C90.0284 42.0797 89.0391 41.2228 87.1806 41.2228H84.697V45.9209H87.1806C89.0474 45.9209 90.0366 45.064 90.0366 43.5781H90.0284Z" fill="#3E3E3D"/>
<path d="M92.8099 40.6558H93.4432V49.3482H92.8099V40.6558Z" fill="#3E3E3D"/>
<path d="M98.1246 41.2228H95.0037V40.6558H101.879V41.227H98.7579V49.3482H98.1246V41.2228Z" fill="#3E3E3D"/>
<path d="M108.369 46.885H103.34L102.239 49.3272H101.556L105.546 40.6348H106.18L110.166 49.3272H109.487L108.369 46.885ZM108.137 46.351L105.857 41.3467L103.588 46.351H108.137Z" fill="#3E3E3D"/>
<path d="M111.739 40.6558H112.372V48.7604H117.364V49.3482H111.739V40.6558Z" fill="#3E3E3D"/>
<path d="M50.2668 0H0V50.2668H50.2668V0Z" fill="url(#paint0_linear)"/>
<path d="M0 0H50.2668V50.2668H0V0Z" fill="url(#paint1_linear)"/>
<rect y="0.00390625" width="50.1261" height="50.1261" fill="url(#paint2_linear)"/>
<path d="M29.3535 3C30.4475 3.82362 31.3782 4.84416 32.0978 6.00922C32.8196 7.17371 33.314 8.46449 33.5549 9.81318C34.5152 14.565 33.8032 19.5031 32.4621 24.1142H41.7961V35.464H31.4273V42.6373C28 42.6373 24.5727 42.6621 21.1454 42.6373C20.9848 42.6638 20.8202 42.6501 20.6662 42.5974C20.5122 42.5447 20.3737 42.4547 20.263 42.3353C20.1523 42.216 20.0729 42.0712 20.0318 41.9137C19.9908 41.7562 19.9894 41.5909 20.0278 41.4328C20.3341 40.0089 21.3151 38.854 22.0974 37.6537C24.85 33.7711 27.4785 29.7188 29.0596 25.2111C30.6282 21.0137 31.1675 16.5014 30.6326 12.0525C30.6182 13.1209 30.4567 14.1823 30.1524 15.2066C28.9106 13.5923 27.9545 11.6137 28.1242 9.51516C28.1656 7.25513 29.6722 5.27244 29.3535 3Z" fill="white"/>
<path d="M20.2698 13.7504H27.7577C29.1319 13.6801 29.9183 15.1743 30.0715 16.3706C30.4275 19.7565 28.3165 23.341 25.1044 24.5497C23.8916 24.9388 22.3891 25.1747 21.3212 24.3055C18.6389 22.2359 16.6107 19.0859 13.1958 18.1256C16.0933 20.1952 18.8418 22.6788 20.365 25.9902C21.0736 27.4635 21.4709 29.067 21.5322 30.7008C21.5934 32.3345 21.3173 33.9633 20.721 35.4856C19.9105 37.4462 18.7459 39.2408 17.2854 40.7796C17.9637 39.1703 18.2883 37.4341 18.2374 35.6884C15.4931 35.6884 12.7405 35.6884 9.99208 35.6884V24.3883H15.5759C14.4832 24.0696 13.3614 23.6763 12.5419 22.8236C11.2463 21.5488 10.4101 19.8972 9.2553 18.5147C8.18693 17.199 6.89847 16.0786 5.4472 15.2033C9.03178 14.4955 12.964 14.6983 16.172 16.5734C17.9999 17.6024 19.4406 19.2016 20.2739 21.1266C20.2657 18.6679 20.2698 16.2091 20.2698 13.7504ZM24.3801 17.6372C22.8154 18.0718 22.1573 20.2159 23.2873 21.408C24.318 22.7284 26.6235 22.3311 27.1989 20.7706C28.0309 19.0611 26.1475 17.0039 24.3801 17.6289V17.6372Z" fill="white"/>
<defs>
<linearGradient id="paint0_linear" x1="0" y1="25.1334" x2="50.2668" y2="25.1334" gradientUnits="userSpaceOnUse">
<stop stop-color="#BB2A8C"/>
<stop offset="0.22" stop-color="#B72A8C"/>
<stop offset="0.47" stop-color="#AA2B8C"/>
<stop offset="0.72" stop-color="#942C8C"/>
<stop offset="0.97" stop-color="#762D8C"/>
<stop offset="1" stop-color="#722D8C"/>
</linearGradient>
<linearGradient id="paint1_linear" x1="0" y1="25.1334" x2="50.2668" y2="25.1334" gradientUnits="userSpaceOnUse">
<stop stop-color="#BB2A8C"/>
<stop offset="0.22" stop-color="#B72A8C"/>
<stop offset="0.47" stop-color="#AA2B8C"/>
<stop offset="0.72" stop-color="#942C8C"/>
<stop offset="0.97" stop-color="#762D8C"/>
<stop offset="1" stop-color="#722D8C"/>
</linearGradient>
<linearGradient id="paint2_linear" x1="0" y1="25.067" x2="50.1261" y2="25.067" gradientUnits="userSpaceOnUse">
<stop stop-color="#762D8C"/>
<stop offset="0.489583" stop-color="#BB2A8C"/>
</linearGradient>
</defs>
</svg>
